<svg xmlns="http://www.w3.org/2000/svg" width="720" height="320" viewBox="0 0 720 320"><rect width="100%" height="100%" fill="#ffffff"/>
<text x="40" y="24" font-family="sans-serif" font-size="15">Распределение калиброванной вероятности «текст от ИИ»</text>
<rect x="40.0" y="274.7" width="15.0" height="5.3" fill="#e5484d" opacity="0.75"/>
<rect x="56.0" y="60.0" width="15.0" height="220.0" fill="#12855f" opacity="0.75"/>
<rect x="72.0" y="278.7" width="15.0" height="1.3" fill="#e5484d" opacity="0.75"/>
<rect x="88.0" y="271.5" width="15.0" height="8.5" fill="#12855f" opacity="0.75"/>
<rect x="104.0" y="278.8" width="15.0" height="1.2" fill="#e5484d" opacity="0.75"/>
<rect x="120.0" y="275.2" width="15.0" height="4.8" fill="#12855f" opacity="0.75"/>
<rect x="136.0" y="279.4" width="15.0" height="0.6" fill="#e5484d" opacity="0.75"/>
<rect x="152.0" y="277.2" width="15.0" height="2.8" fill="#12855f" opacity="0.75"/>
<rect x="168.0" y="279.3" width="15.0" height="0.7" fill="#e5484d" opacity="0.75"/>
<rect x="184.0" y="277.0" width="15.0" height="3.0" fill="#12855f" opacity="0.75"/>
<rect x="200.0" y="277.8" width="15.0" height="2.2" fill="#e5484d" opacity="0.75"/>
<rect x="216.0" y="275.7" width="15.0" height="4.3" fill="#12855f" opacity="0.75"/>
<rect x="232.0" y="277.6" width="15.0" height="2.4" fill="#e5484d" opacity="0.75"/>
<rect x="248.0" y="277.4" width="15.0" height="2.6" fill="#12855f" opacity="0.75"/>
<rect x="264.0" y="278.3" width="15.0" height="1.7" fill="#e5484d" opacity="0.75"/>
<rect x="280.0" y="278.5" width="15.0" height="1.5" fill="#12855f" opacity="0.75"/>
<rect x="296.0" y="280.0" width="15.0" height="0.0" fill="#e5484d" opacity="0.75"/>
<rect x="312.0" y="280.0" width="15.0" height="0.0" fill="#12855f" opacity="0.75"/>
<rect x="328.0" y="279.1" width="15.0" height="0.9" fill="#e5484d" opacity="0.75"/>
<rect x="344.0" y="278.3" width="15.0" height="1.7" fill="#12855f" opacity="0.75"/>
<rect x="360.0" y="276.2" width="15.0" height="3.8" fill="#e5484d" opacity="0.75"/>
<rect x="376.0" y="276.2" width="15.0" height="3.8" fill="#12855f" opacity="0.75"/>
<rect x="392.0" y="279.8" width="15.0" height="0.2" fill="#e5484d" opacity="0.75"/>
<rect x="408.0" y="279.8" width="15.0" height="0.2" fill="#12855f" opacity="0.75"/>
<rect x="424.0" y="274.8" width="15.0" height="5.2" fill="#e5484d" opacity="0.75"/>
<rect x="440.0" y="278.4" width="15.0" height="1.6" fill="#12855f" opacity="0.75"/>
<rect x="456.0" y="277.4" width="15.0" height="2.6" fill="#e5484d" opacity="0.75"/>
<rect x="472.0" y="279.4" width="15.0" height="0.6" fill="#12855f" opacity="0.75"/>
<rect x="488.0" y="276.0" width="15.0" height="4.0" fill="#e5484d" opacity="0.75"/>
<rect x="504.0" y="278.7" width="15.0" height="1.3" fill="#12855f" opacity="0.75"/>
<rect x="520.0" y="271.6" width="15.0" height="8.4" fill="#e5484d" opacity="0.75"/>
<rect x="536.0" y="278.3" width="15.0" height="1.7" fill="#12855f" opacity="0.75"/>
<rect x="552.0" y="279.2" width="15.0" height="0.8" fill="#e5484d" opacity="0.75"/>
<rect x="568.0" y="279.8" width="15.0" height="0.2" fill="#12855f" opacity="0.75"/>
<rect x="584.0" y="263.2" width="15.0" height="16.8" fill="#e5484d" opacity="0.75"/>
<rect x="600.0" y="278.4" width="15.0" height="1.6" fill="#12855f" opacity="0.75"/>
<rect x="616.0" y="261.8" width="15.0" height="18.2" fill="#e5484d" opacity="0.75"/>
<rect x="632.0" y="279.0" width="15.0" height="1.0" fill="#12855f" opacity="0.75"/>
<rect x="648.0" y="94.8" width="15.0" height="185.2" fill="#e5484d" opacity="0.75"/>
<rect x="664.0" y="279.5" width="15.0" height="0.5" fill="#12855f" opacity="0.75"/>
<text x="40.0" y="296" font-family="sans-serif" font-size="11" text-anchor="middle">0.0</text>
<text x="200.0" y="296" font-family="sans-serif" font-size="11" text-anchor="middle">0.2</text>
<text x="360.0" y="296" font-family="sans-serif" font-size="11" text-anchor="middle">0.5</text>
<text x="520.0" y="296" font-family="sans-serif" font-size="11" text-anchor="middle">0.8</text>
<text x="680.0" y="296" font-family="sans-serif" font-size="11" text-anchor="middle">1.0</text>
<text x="680" y="296" font-family="sans-serif" font-size="11" text-anchor="end">p(ИИ)</text>
<text x="40" y="314" font-family="sans-serif" font-size="12"><tspan fill="#e5484d">■ машинные токены</tspan>  <tspan fill="#12855f">■ человеческие токены</tspan></text>
</svg>